<svg version="1" xmlns="http://www.w3.org/2000/svg" width="1346.667" height="1346.667" viewBox="0 0 1010.000000 1010.000000"><path d="M242.7 344.6c-.1.1-3.6.4-7.7.8-17.6 1.4-27.6 3-29.6 4.7-1 .8-1.2 5.5-.9 21.2.4 19 1.2 45 2 59.7 2.7 52.3 2.7 108.3 0 158-.9 16.6-1.6 36.9-2 55.9-.4 17.4-.2 20.2 1.2 21.6 1.4 1.4 3.3 1.6 14.7.9 15.5-.9 14.1-.9 28.3 0 16.8 1 15.4 4.9 14.9-41.7-1.6-123.4-1.8-143-1.2-145.3.6-2.2.9-2.4 2.2-1.3.9.7 2.4 3.1 3.4 5.3.9 2.3 3.2 7.5 5 11.6 1.8 4.1 4.3 9.7 5.5 12.5 1.2 2.7 5.7 13.1 10 23 4.2 9.9 8.9 20.7 10.4 24 1.5 3.3 13.1 30.2 25.7 59.9 17.9 42.2 23.4 54 25 54.6 3.8 1.5 10.6 2.2 20.9 2.1 15.6 0 16.1-.3 19.6-8.9 1.2-3.1 3.2-8 4.4-10.7 1.2-2.8 4.6-11.3 7.4-19 8.6-22.8 9.3-24.8 11.1-29 1-2.2 5-12.1 8.9-22 4-9.9 7.8-19.4 8.6-21 .7-1.7 2.7-6.4 4.3-10.5 3.1-7.7 17.3-42.1 19.7-47.5.7-1.7 3.1-7.1 5.3-12 3-6.7 4.5-9 5.8-9 1.8 0 1.9 1.2 1.8 24 0 13.2-.4 35.5-.7 49.5-.4 14-1 36.7-1.4 50.5-.3 13.7-.7 32.6-.7 41.9-.1 21-.9 20 15.4 19 14.1-.9 15.5-.9 30.6 0 17 1 15.7 3.6 14.9-31.6-.4-15.6-.8-31.5-1-35.3-.1-3.9-.6-17.6-1.1-30.5-.5-12.9-.9-40.6-.8-61.5 0-33.7.3-49.8 1.9-101 .3-7.2.6-22.8.7-34.7.3-18.5.1-22-1.2-23.3-1.1-1.1-4.2-1.6-10.5-1.9-5-.2-16.5-.7-25.6-1.1l-16.5-.7-2.5 2.9c-1.3 1.6-7 15.1-12.7 30.3-5.7 15.1-10.9 28.8-11.6 30.5-.7 1.6-3 7.5-5 13-2.1 5.5-4.2 10.9-4.6 12-.5 1.1-3.4 8.5-6.5 16.5-3 8-5.9 15.4-6.4 16.5-.5 1.1-6.2 15.5-12.6 32-27.9 71.1-37.6 93.5-40.5 93.5-1.3 0-6.5-11.3-17.5-37.5-3.6-8.8-7.3-17.4-8-19-.7-1.7-2-4.6-2.8-6.5-8.7-20.4-27.1-63-32.7-75.5-1-2.2-7-15.7-13.3-30-20.4-46-34.5-76.7-36.3-78.6-1.3-1.5-2.9-1.8-8.6-1.6-3.8.1-7 .2-7.1.3zM736.4 347.1c-1.7.5-3.9 1.7-4.8 2.8-1.5 1.6-12.9 30.4-18.3 46.1-10.2 29.7-24.6 56.5-36.6 68.2-12.3 11.9-33.4 18.5-61 19.3-12.6.3-15.2-.5-16.8-5.2-1.1-3.3-.8-36 .6-84.3 1.1-34 .9-45.1-.5-46.1-1.3-.8-7.9-.8-25.5.3-.5 0-8-.3-16.6-.7l-15.6-.7-1.1 2.9c-1.1 2.9-1 20.3.3 53.3.4 9.1.8 20.5 1 25.5.2 4.9.8 17.1 1.2 27 1.4 34.2.8 108.9-1.2 136-.6 7.8-1.5 34.4-2 56.1-.5 21.9-1.2 20.9 14.7 19.9 14.7-1 17.2-1 30.1-.2 11.9.8 15.2.3 16.2-2.1.6-1.6.6-29.9 0-46.2-.5-14-1.7-57.5-2-70.5-.1-7.2.1-14 .6-15.2 1.4-3.8 9.4-5.3 28.9-5.5 16.8-.2 19.8.5 25 5.5 4.1 4.1 6.8 8.9 15.5 28.7 5.3 12 24.8 48.4 32.2 60.2 1.2 2.1 2.3 4 2.3 4.2 0 .8 13.1 21.7 17.9 28.5 2.5 3.5 6 7.9 7.8 9.7l3.4 3.4H760c26.7 0 28.1-.1 30-2 1.1-1.1 2.1-2.8 2.1-3.8.1-.9.3-2.8.4-4.2.2-1.4-.2-3.4-.8-4.5-1.6-3-20.6-29.2-31.6-43.5-12-15.6-17.8-24.6-28.5-44.4-4.4-8.1-18.4-36-21.5-42.9-4.1-9.1-5.8-13.2-6.3-14.7-.9-2.6 1.8-6.5 10.5-15.1 13.3-13.4 19.5-21 32.5-39.6 1.2-1.8 2.2-3.5 2.2-3.8 0-.3 1.1-2.4 2.6-4.6 2.2-3.6 11.7-21.7 11.9-22.9.1-.3.9-2.3 1.9-4.5 8.3-18.6 21.7-62.1 20.3-65.8-1.5-4-7.2-5.1-27.2-5.3-10.4-.1-20.4.2-22.1.7zM136 459.8c-15.7 10.3-30.3 19.8-32.5 21.2-2.2 1.3-4.2 2.7-4.5 3-1.3 1.6-17.4 10.9-29.3 16.9-13.1 6.7-35 15.6-45.7 18.6-3 .8-6.1 1.9-6.8 2.4-1 .6-1.3 5.1-1.3 19.6 0 10.3.3 19.1.8 19.5.4.4 5.5 2.4 11.3 4.5 17.1 6.1 36.6 14.2 47.9 19.9 10.5 5.3 23.9 13.6 62.8 39.2 20.8 13.7 24.2 15.8 24.8 15.2.4-.4 6.5-11 10.8-18.8 1.7-3 4-7.1 5.2-9 1.2-1.9 2.5-4.1 2.9-4.7 1.8-3.1-12.3-14.8-42.8-35.4-36.4-24.6-42-28.4-42.3-29.4-.2-.6.9-1.8 2.4-2.7 13.8-8.1 65.5-45.5 77.1-55.6 9-7.9 9-7.8 3.8-16.4-2.5-4.1-6.7-11.6-9.3-16.8-2.7-5.1-5.3-9.5-5.9-9.7-.5-.2-13.8 8.1-29.4 18.5zM839 457.3c-3.9 6.1-18 31.3-18 32.2 0 1.5 5.3 6.8 12.8 12.9 6.9 5.5 17.6 12.9 49.2 34.2 10.2 6.8 19.7 13.4 21.2 14.6l2.8 2.3-9.7 6.5c-31.4 21-62.4 43.6-72.1 52.5-7.2 6.7-7.6 8.3-3.1 14.5 1.7 2.3 5.6 9 8.6 14.9 3 5.8 6 11.1 6.6 11.8.9.9 5.4-1.6 19.2-10.7 49.2-32.6 61.1-40 77-48 17.5-8.9 30.4-14.3 43.5-18.1 4.1-1.2 8.2-2.8 9-3.5 1.2-1 1.5-4.4 1.4-19.1-.1-9.8-.2-18.3-.3-18.9 0-.6-2.9-2.1-6.3-3.3-3.5-1.2-7.9-2.8-9.8-3.6-1.9-.7-8.4-3.2-14.5-5.6-16.8-6.5-37.9-16.8-49.5-24.4-5.8-3.7-13.6-8.8-17.5-11.3-12.6-8.1-38.9-25.4-43-28.1-6-4.1-6-4.1-7.5-1.8z"/></svg>